<?xml version="1.0" encoding="UTF-8" standalone="no"?>
<svg
   width="16"
   height="16"
   fill="currentColor"
   class="bi bi-mic-fill"
   viewBox="0 0 16 16"
   version="1.1"
   id="svg6"
   sodipodi:docname="mic-fill.svg"
   inkscape:version="1.1.2 (0a00cf5339, 2022-02-04, custom)"
   xmlns:inkscape="http://www.inkscape.org/namespaces/inkscape"
   xmlns:sodipodi="http://sodipodi.sourceforge.net/DTD/sodipodi-0.dtd"
   xmlns="http://www.w3.org/2000/svg"
   xmlns:svg="http://www.w3.org/2000/svg">
  <defs
     id="defs10" />
  <sodipodi:namedview
     id="namedview8"
     pagecolor="#505050"
     bordercolor="#eeeeee"
     borderopacity="1"
     inkscape:pageshadow="0"
     inkscape:pageopacity="0"
     inkscape:pagecheckerboard="0"
     showgrid="false"
     inkscape:zoom="44"
     inkscape:cx="7.9886364"
     inkscape:cy="7.9431818"
     inkscape:window-width="2560"
     inkscape:window-height="1440"
     inkscape:window-x="2560"
     inkscape:window-y="-25"
     inkscape:window-maximized="0"
     inkscape:current-layer="svg6" />
  <path
     d="M5 3a3 3 0 0 1 6 0v5a3 3 0 0 1-6 0V3z"
     id="path2" />
  <path
     d="M3.5 6.5A.5.5 0 0 1 4 7v1a4 4 0 0 0 8 0V7a.5.5 0 0 1 1 0v1a5 5 0 0 1-4.5 4.975V15h3a.5.5 0 0 1 0 1h-7a.5.5 0 0 1 0-1h3v-2.025A5 5 0 0 1 3 8V7a.5.5 0 0 1 .5-.5z"
     id="path4" />
  <path
     style="fill:#ffffff;stroke-width:0.0171797;stroke-linecap:square;stroke-linejoin:bevel;paint-order:stroke markers fill"
     d="M 7.6022727,10.964231 C 7.3658118,10.93168 7.0575651,10.84425 6.8235231,10.743348 5.8943433,10.342757 5.2451489,9.5197409 5.0539718,8.5 5.0137872,8.2856545 5.0113636,8.1150157 5.0113636,5.5 c 0,-2.6150157 0.00242,-2.7856545 0.042608,-3 C 5.2869311,1.2573923 6.1963318,0.3259837 7.4318182,0.06460867 7.5730745,0.03472498 7.7257964,0.02373982 8,0.02373982 c 0.4026539,0 0.6080793,0.03051525 0.9303123,0.13819469 1.0538272,0.35215367 1.8215477,1.24709339 2.0163797,2.35051439 0.03923,0.2222036 0.04194,0.41522 0.04194,2.9875511 0,2.5723311 -0.0027,2.7653475 -0.04194,2.9875511 -0.142987,0.8098009 -0.608919,1.5371499 -1.2663997,1.9769319 -0.3487823,0.233296 -0.6317278,0.357327 -1.0212014,0.44765 -0.2733825,0.0634 -0.7897914,0.08886 -1.0568182,0.0521 z"
     id="path938" />
  <path
     style="fill:#ffffff;stroke-width:0.0171797;stroke-linecap:square;stroke-linejoin:bevel;paint-order:stroke markers fill"
     d="M 4.3181818,15.952402 C 3.9927155,15.811427 3.9171332,15.387096 4.1740549,15.143251 4.3170892,15.007497 4.2649108,15.011364 5.9538155,15.011364 H 7.5 V 13.989666 12.967969 L 7.4261364,12.9567 C 7.0781182,12.903608 6.8587257,12.858541 6.6303734,12.793236 4.9848743,12.322653 3.6784444,11.018225 3.2068915,9.375 3.052262,8.8361614 2.9872591,8.1755239 3.0045126,7.3181818 3.0140405,6.8447323 3.0304041,6.7795904 3.1740549,6.6432511 3.411484,6.4179067 3.7765235,6.490544 3.9389556,6.7954545 c 0.046017,0.086381 0.049178,0.1327942 0.063455,0.9318182 0.013264,0.7422897 0.020814,0.867563 0.064374,1.0681818 0.354697,1.6335835 1.5952937,2.8467805 3.2231776,3.1519915 0.3816534,0.07156 1.038422,0.07156 1.4200754,0 1.6325324,-0.306083 2.8674674,-1.513744 3.2231774,-3.1519915 0.04356,-0.2006188 0.05111,-0.3258921 0.06437,-1.0681818 0.01428,-0.799024 0.01744,-0.8454372 0.06346,-0.9318182 0.201492,-0.378232 0.677348,-0.378232 0.877618,0 0.04304,0.08129 0.04905,0.1366021 0.05682,0.5227273 0.01116,0.5545178 -0.02602,1.2241921 -0.08643,1.5568182 -0.186245,1.0254759 -0.650765,1.90717 -1.395462,2.64869 -0.349428,0.347937 -0.620196,0.557987 -1.019717,0.791055 C 9.9179359,12.650731 9.3627811,12.836346 8.5738636,12.9567 L 8.5,12.967969 v 1.021697 1.021698 h 1.546185 c 1.688904,0 1.636726,-0.0039 1.77976,0.131887 0.258889,0.245712 0.180352,0.672477 -0.149079,0.810089 -0.07521,0.03142 -0.479686,0.0352 -3.6818178,0.03441 -3.1630593,-7.82e-4 -3.6069235,-0.005 -3.6768664,-0.03535 z"
     id="path977" />
</svg>
