<?xml version="1.0" encoding="UTF-8" standalone="no"?>
<svg
   width="16"
   height="16"
   fill="currentColor"
   class="bi bi-mic-mute-fill"
   viewBox="0 0 16 16"
   version="1.1"
   id="svg6"
   sodipodi:docname="mic-mute-fill.svg"
   inkscape:version="1.1.2 (0a00cf5339, 2022-02-04, custom)"
   xmlns:inkscape="http://www.inkscape.org/namespaces/inkscape"
   xmlns:sodipodi="http://sodipodi.sourceforge.net/DTD/sodipodi-0.dtd"
   xmlns="http://www.w3.org/2000/svg"
   xmlns:svg="http://www.w3.org/2000/svg">
  <defs
     id="defs10" />
  <sodipodi:namedview
     id="namedview8"
     pagecolor="#505050"
     bordercolor="#eeeeee"
     borderopacity="1"
     inkscape:pageshadow="0"
     inkscape:pageopacity="0"
     inkscape:pagecheckerboard="0"
     showgrid="false"
     inkscape:zoom="44"
     inkscape:cx="8"
     inkscape:cy="3.0795455"
     inkscape:window-width="1269"
     inkscape:window-height="438"
     inkscape:window-x="3843"
     inkscape:window-y="969"
     inkscape:window-maximized="0"
     inkscape:current-layer="svg6" />
  <path
     d="M13 8c0 .564-.094 1.107-.266 1.613l-.814-.814A4.02 4.02 0 0 0 12 8V7a.5.5 0 0 1 1 0v1zm-5 4c.818 0 1.578-.245 2.212-.667l.718.719a4.973 4.973 0 0 1-2.43.923V15h3a.5.5 0 0 1 0 1h-7a.5.5 0 0 1 0-1h3v-2.025A5 5 0 0 1 3 8V7a.5.5 0 0 1 1 0v1a4 4 0 0 0 4 4zm3-9v4.879L5.158 2.037A3.001 3.001 0 0 1 11 3z"
     id="path2" />
  <path
     d="M9.486 10.607 5 6.12V8a3 3 0 0 0 4.486 2.607zm-7.84-9.253 12 12 .708-.708-12-12-.708.708z"
     id="path4" />
  <path
     style="fill:#ffffff;stroke-width:0.0171797;stroke-linecap:square;stroke-linejoin:bevel;paint-order:stroke markers fill"
     d="m 8.0751902,4.9261709 -2.9020825,-2.9034436 0.05194,-0.125 C 5.3809724,1.5224762 5.5743295,1.2231368 5.8387691,0.94761473 6.6251277,0.12830068 7.750115,-0.17457372 8.8469261,0.13774444 9.1158564,0.21432262 9.5487809,0.43282398 9.7861866,0.61179873 10.292236,0.99329768 10.691297,1.5664931 10.863418,2.1590909 c 0.126207,0.4345207 0.125914,0.4267843 0.119636,3.1565141 l -0.0058,2.5140095 z"
     id="path901" />
  <path
     style="fill:#ffffff;stroke-width:0.0171797;stroke-linecap:square;stroke-linejoin:bevel;paint-order:stroke markers fill"
     d="M 7.6477657,7.3409475 1.6592002,1.3523497 2.0057804,1.0057696 2.3523605,0.65918944 8.34649,6.6533189 l 5.994129,5.9941291 -0.34048,0.341049 c -0.187264,0.187577 -0.345729,0.341048 -0.352144,0.341048 -0.0064,0 -2.706518,-2.694869 -6.0002293,-5.9885975 z"
     id="path940" />
  <path
     style="fill:#ffffff;stroke-width:0.0171797;stroke-linecap:square;stroke-linejoin:bevel;paint-order:stroke markers fill"
     d="M 7.6818182,10.974628 C 6.92527,10.862038 6.3443096,10.574376 5.8578312,10.071485 5.4633151,9.6636586 5.2072256,9.1873439 5.0740224,8.6136364 5.030001,8.4240355 5.0259003,8.3268954 5.0178963,7.2840909 l -0.00863,-1.125 2.2169602,2.2158654 c 1.2193281,1.218726 2.2169601,2.2218597 2.2169601,2.2291857 0,0.0073 -0.089489,0.05501 -0.1988636,0.105952 -0.3936998,0.183387 -0.7202462,0.257714 -1.1761364,0.267706 -0.175,0.0038 -0.3488636,0.0024 -0.3863636,-0.0032 z"
     id="path979" />
  <path
     style="fill:#ffffff;stroke-width:0.0171797;stroke-linecap:square;stroke-linejoin:bevel;paint-order:stroke markers fill"
     d="M 4.2830114,15.926342 C 4.052912,15.8097 3.9540445,15.545225 4.0551209,15.316725 4.1196779,15.170784 4.1596108,15.128988 4.2954545,15.065182 l 0.1136364,-0.05337 1.5511364,-2.28e-4 1.5511363,-2.27e-4 V 13.990018 12.968684 L 7.4034091,12.953909 C 5.7296605,12.724855 4.3161532,11.739263 3.5668777,10.278833 3.3258175,9.8089764 3.1755851,9.355692 3.0752408,8.7954545 3.0384098,8.5898215 3.0283141,8.4030332 3.0183536,7.7429359 3.0075747,7.0285963 3.0104227,6.9294758 3.0442732,6.8408393 3.0993171,6.696709 3.1630246,6.6263867 3.2936622,6.5655563 c 0.1411903,-0.065744 0.2648067,-0.067909 0.3991109,-0.00699 0.1285073,0.05829 0.1747699,0.1003106 0.2357817,0.2141603 0.046251,0.086307 0.049438,0.1311795 0.062934,0.8863636 0.014714,0.8232679 0.028855,0.9693403 0.1331155,1.375 0.1080175,0.4202775 0.3408063,0.9153291 0.6091637,1.2954538 0.1955603,0.27701 0.6596768,0.741126 0.9366861,0.936687 0.2383482,0.168266 0.5984823,0.363166 0.8687839,0.470174 0.2113418,0.08367 0.6203232,0.193252 0.8698525,0.233074 0.2356746,0.03761 0.948283,0.03738 1.1818182,-3.85e-4 0.5370266,-0.08684 1.0822368,-0.286317 1.5242143,-0.557668 l 0.0924,-0.05673 0.347518,0.348062 0.347518,0.348061 -0.07628,0.05733 c -0.409237,0.307557 -1.1519025,0.630433 -1.7580966,0.764337 -0.1073229,0.02371 -0.5257573,0.09314 -0.5625,0.09333 -0.00938,5e-5 -0.017045,0.460318 -0.017045,1.022818 v 1.022728 l 1.5511366,2.27e-4 1.551136,2.27e-4 0.113636,0.05338 c 0.133631,0.06277 0.174518,0.104544 0.236888,0.242044 0.06423,0.141602 0.05973,0.26218 -0.0153,0.410178 -0.04694,0.09259 -0.09035,0.140288 -0.174351,0.191576 l -0.11185,0.06829 -3.6166123,0.0059 -3.6166119,0.0059 -0.1236994,-0.0627 z"
     id="path1018" />
  <path
     style="fill:#ff9955;stroke-width:0.0171797;stroke-linecap:square;stroke-linejoin:bevel;paint-order:stroke markers fill"
     d="m 12.331874,9.1841498 -0.394911,-0.3953957 0.02932,-0.178468 c 0.01737,-0.1057571 0.03484,-0.4979197 0.04288,-0.9625588 0.01288,-0.7442298 0.01604,-0.7887125 0.06228,-0.875 0.06101,-0.1138497 0.107275,-0.15587 0.235782,-0.2141603 0.134304,-0.06092 0.25792,-0.058755 0.399111,0.00699 0.130545,0.060787 0.194346,0.1311562 0.249241,0.2748972 0.03354,0.087834 0.03665,0.1898294 0.02712,0.8907329 -0.01247,0.9169949 -0.03845,1.1281745 -0.212684,1.7290409 -0.01903,0.065625 -0.03654,0.1193182 -0.03891,0.1193182 -0.0024,0 -0.182023,-0.177928 -0.399224,-0.3953957 z"
     id="path1057" />
  <path
     style="fill:#ff9955;stroke-width:0.0171797;stroke-linecap:square;stroke-linejoin:bevel;paint-order:stroke markers fill"
     d="M 8.5681818,5.4051298 6.1818182,3.0113636 8.5661827,3.0055766 c 1.3114005,-0.00318 2.3878683,-0.00228 2.3921503,0.002 0.0043,0.00428 0.0052,1.084081 0.002,2.3995531 l -0.0058,2.3917677 z"
     id="path1143" />
  <path
     style="fill:#ff9955;stroke-width:0.0171797;stroke-linecap:square;stroke-linejoin:bevel;paint-order:stroke markers fill"
     d="M 8.2836839,7.9557991 3.3181818,3.0025072 4.00002,3.0012536 4.6818583,3 l 4.824191,4.8242311 4.8241907,4.8242309 -0.131688,0.130315 -0.131688,0.130314 h -0.408839 -0.408839 z"
     id="path1182" />
  <path
     style="fill:#ff9955;stroke-width:0.0171797;stroke-linecap:square;stroke-linejoin:bevel;paint-order:stroke markers fill"
     d="M 7.6166977,10.953652 C 7.0049224,10.857947 6.4171581,10.578781 6.0045085,10.187923 5.578108,9.7840407 5.3444033,9.4188827 5.1674767,8.8800811 5.0489313,8.51907 5.036429,8.3650595 5.0288513,7.1724058 l -0.00634,-0.9980486 2.1995358,2.2133759 2.1995357,2.2133759 -0.1539725,0.07796 c -0.2080723,0.105346 -0.4959896,0.201381 -0.7194109,0.239962 -0.2413523,0.04168 -0.7625746,0.06105 -0.9315005,0.03463 z"
     id="path1221" />
  <path
     style="fill:#ff9955;stroke-width:0.0171797;stroke-linecap:square;stroke-linejoin:bevel;paint-order:stroke markers fill"
     d="M 6.9204545,12.851066 C 6.5945902,12.776168 6.1875634,12.634202 5.8812916,12.48862 4.3988647,11.783971 3.3925477,10.457216 3.0887202,8.8068182 3.0402597,8.5435799 3.0132879,6.9999654 3.0547317,6.8616381 c 0.036733,-0.1226041 0.129209,-0.22304 0.2625214,-0.2851183 0.1509732,-0.070302 0.227459,-0.067571 0.3905928,0.013948 0.103385,0.051662 0.1486001,0.090771 0.1904976,0.1647727 0.052704,0.093089 0.055636,0.1210474 0.072132,0.6879414 0.035531,1.2210375 0.07847,1.5128821 0.3033816,2.0620209 0.2485085,0.6067512 0.5681138,1.0548222 1.0784157,1.5118852 0.5447118,0.487883 1.1371087,0.77551 1.9318182,0.937957 0.2166371,0.04428 0.2899682,0.04781 0.7954546,0.03821 0.6153109,-0.01168 0.7043459,-0.02513 1.1734186,-0.177223 0.2645648,-0.08578 0.6764491,-0.272108 0.8659248,-0.391719 l 0.09005,-0.05685 0.338713,0.339601 c 0.198031,0.19855 0.328911,0.346428 0.315113,0.356039 -0.439843,0.306373 -0.820308,0.494353 -1.3667525,0.675285 -0.4804928,0.159095 -0.5858703,0.170889 -1.510945,0.169111 -0.7890141,-0.0015 -0.8366541,-0.004 -1.0646119,-0.05644 z"
     id="path1260" />
  <path
     style="fill:#ff9955;stroke-width:0.0171797;stroke-linecap:square;stroke-linejoin:bevel;paint-order:stroke markers fill"
     d="M 4.3181818,15.928192 C 4.1910583,15.862368 4.125759,15.798728 4.0770464,15.693182 4.0174032,15.563953 4.0225,15.418548 4.0915286,15.280026 c 0.047497,-0.09531 0.080497,-0.127553 0.1906813,-0.186281 l 0.1332436,-0.07102 h 1.5479551 1.547955 v -1.032698 -1.032698 l -0.1079545,-0.01454 c -0.059375,-0.008 -0.1181818,-0.01805 -0.1306818,-0.02233 -0.0125,-0.0043 0.3147727,-0.0073 0.7272727,-0.0067 0.5687575,8.52e-4 0.7184198,0.0065 0.6193182,0.02351 l -0.1306818,0.02239 v 1.031511 1.031511 h 1.5479546 1.547956 l 0.133697,0.07126 c 0.113356,0.06042 0.142792,0.08985 0.193474,0.19344 0.11333,0.231638 0.03811,0.478202 -0.190021,0.622879 l -0.105596,0.06697 -3.6035051,-0.001 c -3.5993941,-10e-4 -3.6036087,-0.0011 -3.6944141,-0.04808 z"
     id="path1299" />
  <path
     style="fill:#ff9955;stroke-width:0.0171797;stroke-linecap:square;stroke-linejoin:bevel;paint-order:stroke markers fill"
     d="M 5.6912656,2.5105123 C 5.4235695,2.241294 5.2005389,2.0165488 5.1956419,2.0110785 5.1742582,1.9871908 5.4743468,1.4265885 5.5969618,1.2613636 6.0678929,0.62677966 6.7194074,0.22054129 7.5146175,0.06564905 7.7348007,0.02276143 8.2776382,0.02962424 8.5340909,0.07853772 9.1357357,0.19329002 9.6718707,0.48156239 10.109951,0.92585627 10.612914,1.4359523 10.910032,2.0824765 10.956091,2.7670455 L 10.971765,3 H 8.5748752 6.1779857 Z"
     id="path1353" />
  <path
     style="fill:#ff9955;stroke-width:0.0171797;stroke-linecap:square;stroke-linejoin:bevel;paint-order:stroke markers fill"
     d="M 2.4941169,2.1759366 1.6702854,1.3518732 2.0114074,1.0113199 2.3525294,0.67076665 3.5171461,1.8353833 4.6817627,3 H 3.9998555 3.3179483 Z"
     id="path1392" />
</svg>
